# xmcd CD database file
#
# Track frame offsets:
#	150
#	14956
#	37797
#	49237
#	59882
#	76373
#	92890
#	103315
#	118868
#	133849
#	147507
#	165979
#	178620
#	194631
#	206063
#	221367
#	240246
#	255221
#	281626
#	299056
#
# Disc length: 4142 seconds
#
# Revision: 0
# Processed by: cddbd v1.5.2PL0 Copyright (c) Steve Scherf et al.
# Submitted via: CDex 1.51
#
DISCID=3d102c14
DTITLE=Texas Roads - A Tribute to the Masters of Country and Western Music
DYEAR=2005
DGENRE=Country
TTITLE0=Country Roads
TTITLE1=Sunday Morning Coming Down
TTITLE2=Oh, Lonesome Me
TTITLE3=Truck Driving Man
TTITLE4=Good Hearted Woman
TTITLE5=You Are My Sunshine
TTITLE6=San Quentin
TTITLE7=Luckenbach Texas
TTITLE8=Banks Of The Ohio
TTITLE9=Crazy Arms
TTITLE10=Down By The Riverside
TTITLE11=Don't Take Your Guns To Town
TTITLE12=More Of You
TTITLE13=Heartaches By The Number
TTITLE14=Will The Circle Be Unbroken
TTITLE15=Leavin' On A Jet Plane
TTITLE16=Have A Drink On Me
TTITLE17=Friends In Low Places
TTITLE18=Amanda
TTITLE19=Wir spielen hier
EXTD=YEAR: 2005
EXTT0=
EXTT1=
EXTT2=
EXTT3=
EXTT4=
EXTT5=
EXTT6=
EXTT7=
EXTT8=
EXTT9=
EXTT10=
EXTT11=
EXTT12=
EXTT13=
EXTT14=
EXTT15=
EXTT16=
EXTT17=
EXTT18=
EXTT19=
PLAYORDER=
